<svg width="154" height="154" viewBox="0 0 154 154" fill="none" xmlns="http://www.w3.org/2000/svg">
<circle cx="77.3335" cy="76.9983" r="76.665" fill="#89E780"/>
<path d="M62.0124 58.7187C62.0124 66.4653 56.5431 72.7454 49.7951 72.7454C43.0485 72.7454 37.5791 66.4653 37.5791 58.7187C37.5791 50.972 43.0485 44.6933 49.7951 44.6933C56.5431 44.6933 62.0124 50.972 62.0124 58.7187Z" fill="#21214D"/>
<path d="M117.091 58.7187C117.091 66.4653 111.622 72.7454 104.875 72.7454C98.1285 72.7454 92.6592 66.4653 92.6592 58.7187C92.6592 50.972 98.1285 44.6933 104.875 44.6933C111.622 44.6933 117.091 50.972 117.091 58.7187Z" fill="#21214D"/>
<path d="M51.8781 54.5572C51.8781 57.0052 49.8928 58.9919 47.4434 58.9919C44.9941 58.9919 43.0088 57.0052 43.0088 54.5572C43.0088 52.1079 44.9941 50.1226 47.4434 50.1226C49.8928 50.1226 51.8781 52.1079 51.8781 54.5572Z" fill="white"/>
<path d="M106.958 54.5572C106.958 57.0052 104.973 58.9919 102.524 58.9919C100.074 58.9919 98.0889 57.0052 98.0889 54.5572C98.0889 52.1079 100.074 50.1226 102.524 50.1226C104.973 50.1226 106.958 52.1079 106.958 54.5572Z" fill="white"/>
<path d="M110.541 105.341L110.467 105.269C108.169 103.279 104.369 103.839 101.455 105.867C97.5461 108.617 93.2927 110.517 88.9127 111.621C85.3287 112.708 81.4194 113.305 77.3287 113.305C73.2207 113.305 69.3114 112.708 65.71 111.604C61.3474 110.5 57.1127 108.599 53.2221 105.867C50.3074 103.839 46.5074 103.279 44.2087 105.269L44.118 105.341C41.838 107.277 42.4527 111.839 46.0727 114.952C54.0314 121.783 63.7874 125.813 73.9674 126.907C75.078 126.972 76.198 127.017 77.3353 127.017C78.4753 127.017 79.5981 126.972 80.7114 126.907C90.8901 125.812 100.645 121.783 108.586 114.952C112.223 111.839 112.839 107.277 110.541 105.341Z" fill="#21214D"/>
</svg>
