<svg width="41" height="41" viewBox="0 0 41 41" fill="none" xmlns="http://www.w3.org/2000/svg">
<path d="M0.5 20.333C0.5 10.9049 0.5 6.19087 3.42893 3.26194C6.35786 0.333008 11.0719 0.333008 20.5 0.333008C29.9281 0.333008 34.6421 0.333008 37.5711 3.26194C40.5 6.19087 40.5 10.9049 40.5 20.333C40.5 29.7611 40.5 34.4751 37.5711 37.4041C34.6421 40.333 29.9281 40.333 20.5 40.333C11.0719 40.333 6.35786 40.333 3.42893 37.4041C0.5 34.4751 0.5 29.7611 0.5 20.333Z" fill="#4865DB"/>
<path d="M24.4999 26.333C25.0522 26.333 25.51 26.7851 25.4003 27.3264C25.2064 28.2824 24.7354 29.1685 24.0354 29.8685C23.0978 30.8062 21.826 31.333 20.4999 31.333C19.1738 31.333 17.9021 30.8062 16.9644 29.8685C16.2644 29.1685 15.7934 28.2824 15.5996 27.3264C15.4898 26.7851 15.9476 26.333 16.4999 26.333H24.4999Z" fill="white"/>
<path d="M26.6022 18.1095C26.0687 18.2524 25.742 18.8105 26.0125 19.292C26.2972 19.7988 26.691 20.2411 27.1701 20.5844C27.9223 21.1234 28.8381 21.385 29.7616 21.3244C30.685 21.2639 31.5589 20.8851 32.2343 20.2525C32.9098 19.6199 33.3449 18.7726 33.4657 17.8551C33.5865 16.9376 33.3855 16.0066 32.8968 15.2207C32.4081 14.4349 31.662 13.8428 30.7857 13.5453C29.9094 13.2478 28.9571 13.2634 28.091 13.5894C27.5394 13.797 27.0446 14.1223 26.6384 14.5381C26.2525 14.9332 26.4236 15.5569 26.9019 15.833L27.4092 16.1259C28.1807 16.5714 28.0286 17.7273 27.168 17.9579L26.6022 18.1095Z" fill="white"/>
<path d="M14.3977 18.1095C14.9312 18.2524 15.2579 18.8105 14.9874 19.292C14.7027 19.7988 14.3089 20.2411 13.8299 20.5844C13.0777 21.1234 12.1618 21.385 11.2384 21.3244C10.315 21.2639 9.44107 20.8851 8.76564 20.2525C8.09021 19.6199 7.65502 18.7726 7.53423 17.8551C7.41344 16.9376 7.61451 16.0066 8.1032 15.2207C8.59188 14.4349 9.33794 13.8428 10.2142 13.5453C11.0905 13.2478 12.0429 13.2634 12.909 13.5894C13.4605 13.797 13.9554 14.1223 14.3616 14.5381C14.7475 14.9332 14.5763 15.5569 14.098 15.833L13.5907 16.1259C12.8192 16.5714 12.9714 17.7273 13.8319 17.9579L14.3977 18.1095Z" fill="white"/>
</svg>
