<svg width="154" height="154" viewBox="0 0 154 154" fill="none" xmlns="http://www.w3.org/2000/svg">
<circle cx="77.3335" cy="76.9983" r="76.665" fill="#89CAFF"/>
<path d="M55.9629 126.584L56.0362 126.623C58.3549 127.637 61.6709 126.595 63.9989 124.671C67.1176 122.065 70.6576 120.001 74.4176 118.478C77.4696 117.104 80.8776 116.019 84.5282 115.324C88.1936 114.625 91.7629 114.383 95.1243 114.549C99.1643 114.587 103.199 115.208 107.039 116.474C109.911 117.411 113.378 117.16 115.162 115.365L115.232 115.299C117.007 113.545 115.846 110.432 112.198 108.85C104.178 105.384 94.9309 104.199 85.7002 105.157C84.7002 105.299 83.6949 105.457 82.6802 105.65C81.6629 105.844 80.6669 106.067 79.6816 106.302C70.7469 108.804 62.5842 113.304 56.4162 119.472C53.5882 122.287 53.6509 125.608 55.9629 126.584Z" fill="#21214D"/>
<path d="M62.0124 62.6402C62.0124 70.387 56.5431 76.6667 49.7964 76.6667C43.0484 76.6667 37.5791 70.387 37.5791 62.6402C37.5791 54.8933 43.0484 48.6135 49.7964 48.6135C56.5431 48.6135 62.0124 54.8933 62.0124 62.6402Z" fill="#21214D"/>
<path d="M117.093 62.6402C117.093 70.387 111.623 76.6667 104.875 76.6667C98.1285 76.6667 92.6592 70.387 92.6592 62.6402C92.6592 54.8933 98.1285 48.6135 104.875 48.6135C111.623 48.6135 117.093 54.8933 117.093 62.6402Z" fill="#21214D"/>
<path d="M51.8779 58.4775C51.8779 60.9264 49.8925 62.9119 47.4432 62.9119C44.9939 62.9119 43.0085 60.9264 43.0085 58.4775C43.0085 56.0291 44.9939 54.0425 47.4432 54.0425C49.8925 54.0425 51.8779 56.0291 51.8779 58.4775Z" fill="white"/>
<path d="M106.958 58.4775C106.958 60.9264 104.973 62.9119 102.523 62.9119C100.074 62.9119 98.0886 60.9264 98.0886 58.4775C98.0886 56.0291 100.074 54.0425 102.523 54.0425C104.973 54.0425 106.958 56.0291 106.958 58.4775Z" fill="white"/>
</svg>
