<svg width="154" height="154" viewBox="0 0 154 154" fill="none" xmlns="http://www.w3.org/2000/svg">
<circle cx="77" cy="76.9978" r="76.665" fill="#B8B1FF"/>
<path d="M77.0012 126.782H92.1292C96.8972 126.782 99.1358 122.481 95.5705 120.17L95.2585 119.968C84.8439 113.22 69.1598 113.22 58.7451 119.968L58.4318 120.17C54.8665 122.481 57.1065 126.782 61.8745 126.782H77.0012Z" fill="#21214D"/>
<path d="M54.8079 83.2874C56.0346 82.7354 57.2398 82.1208 58.3385 81.3448C61.9278 78.8061 64.1999 74.5022 64.2705 70.1075C64.2812 69.5008 64.2479 68.8768 63.9985 68.3234C63.3879 66.9714 61.6079 66.4635 60.1825 66.8768C58.7585 67.2902 57.6439 68.3955 56.7212 69.5581C55.7985 70.7195 54.9879 71.9928 53.8586 72.9555C52.8759 73.7928 51.6932 74.3608 50.4972 74.8488C46.9546 76.2928 42.7145 77.0608 39.4425 75.0768C38.7745 74.6715 38.1746 74.1661 37.5692 73.6715C36.0439 72.4221 34.4119 71.1994 32.4985 70.7261C30.5839 70.2528 28.3105 70.7088 27.1545 72.3048C26.1945 73.6301 26.1959 75.4808 26.8265 76.9915C27.4559 78.5008 28.6305 79.7195 29.8879 80.7661C34.0212 84.2021 39.4185 86.1395 44.7879 85.8995C48.2572 85.7448 51.6412 84.7128 54.8079 83.2874Z" fill="#21214D"/>
<path d="M99.1959 83.2874C97.9692 82.7354 96.7639 82.1208 95.6652 81.3448C92.0759 78.8061 89.8038 74.5022 89.7332 70.1075C89.7225 69.5008 89.7558 68.8768 90.0052 68.3234C90.6158 66.9714 92.3959 66.4635 93.8199 66.8768C95.2452 67.2902 96.3598 68.3955 97.2825 69.5581C98.2052 70.7195 99.0158 71.9928 100.145 72.9555C101.128 73.7928 102.311 74.3608 103.507 74.8488C107.049 76.2928 111.289 77.0608 114.561 75.0768C115.229 74.6715 115.829 74.1661 116.435 73.6715C117.96 72.4221 119.592 71.1994 121.505 70.7261C123.42 70.2528 125.693 70.7088 126.849 72.3048C127.809 73.6301 127.808 75.4808 127.177 76.9915C126.548 78.5008 125.373 79.7195 124.116 80.7661C119.983 84.2021 114.585 86.1395 109.216 85.8995C105.747 85.7448 102.363 84.7128 99.1959 83.2874Z" fill="#21214D"/>
<path opacity="0.3" d="M44.528 46.2622C49.6067 42.6342 53.6654 40.3809 56.628 42.2475C59.5907 44.1142 59.6455 50.5115 55.2855 52.8342C50.9255 55.1568 38.4974 62.4835 21.1481 57.9142C18.4881 57.3995 22.0174 51.1169 29.2827 51.2449C36.5481 51.3742 42.7174 47.5222 44.528 46.2622Z" fill="#21214D"/>
<path opacity="0.3" d="M109.476 46.2622C104.398 42.6342 100.339 40.3809 97.3763 42.2475C94.4136 44.1142 94.359 50.5115 98.719 52.8342C103.079 55.1568 115.507 62.4835 132.856 57.9142C135.516 57.3995 131.987 51.1169 124.722 51.2449C117.456 51.3742 111.287 47.5222 109.476 46.2622Z" fill="#21214D"/>
</svg>
