<svg width="154" height="154" viewBox="0 0 154 154" fill="none" xmlns="http://www.w3.org/2000/svg">
<circle cx="76.6667" cy="76.9983" r="76.665" fill="#FF9B99"/>
<path d="M54.5162 71.9269C55.7429 71.3749 56.9469 70.7603 58.0456 69.9843C61.6349 67.4469 63.9082 63.1416 63.9789 58.7469C63.9882 58.1402 63.9549 57.5162 63.7056 56.9629C63.0962 55.6109 61.3162 55.1029 59.8909 55.5162C58.4656 55.9296 57.3509 57.0349 56.4282 58.1976C55.5069 59.3603 54.6962 60.6323 53.5669 61.5949C52.5842 62.4323 51.4016 63.0002 50.2056 63.4882C46.6629 64.9322 42.4229 65.7002 39.1509 63.7162C38.4829 63.3122 37.8816 62.8056 37.2776 62.3109C35.7509 61.0616 34.1202 59.8389 32.2056 59.3656C30.2922 58.8922 28.0189 59.3482 26.8616 60.9442C25.9016 62.2696 25.9029 64.1203 26.5336 65.6309C27.1642 67.1403 28.3376 68.3602 29.5962 69.4055C33.7282 72.8415 39.1269 74.7789 44.4949 74.5389C47.9642 74.3842 51.3496 73.3522 54.5162 71.9269Z" fill="#21214D"/>
<path d="M98.903 71.9269C97.6763 71.3749 96.4723 70.7603 95.3737 69.9843C91.7843 67.4469 89.511 63.1416 89.4403 58.7469C89.431 58.1402 89.4643 57.5162 89.7137 56.9629C90.323 55.6109 92.103 55.1029 93.5283 55.5162C94.9536 55.9296 96.0683 57.0349 96.991 58.1976C97.9123 59.3603 98.7243 60.6323 99.8523 61.5949C100.835 62.4323 102.018 63.0002 103.214 63.4882C106.756 64.9322 110.996 65.7002 114.268 63.7162C114.936 63.3122 115.538 62.8056 116.142 62.3109C117.668 61.0616 119.299 59.8389 121.214 59.3656C123.127 58.8922 125.4 59.3482 126.558 60.9442C127.518 62.2696 127.516 64.1203 126.886 65.6309C126.255 67.1403 125.082 68.3602 123.823 69.4055C119.691 72.8415 114.292 74.7789 108.924 74.5389C105.455 74.3842 102.07 73.3522 98.903 71.9269Z" fill="#21214D"/>
<path opacity="0.3" d="M44.235 34.9016C49.315 31.2736 53.3737 29.0203 56.3364 30.8869C59.2977 32.7536 59.3537 39.1509 54.9937 41.4736C50.6323 43.7963 38.2044 51.1229 20.8564 46.5536C18.1964 46.0389 21.7257 39.7563 28.9897 39.8843C36.255 40.0136 42.4243 36.1616 44.235 34.9016Z" fill="#21214D"/>
<path opacity="0.3" d="M109.184 34.9016C104.104 31.2736 100.046 29.0203 97.0844 30.8869C94.1218 32.7536 94.0657 39.1509 98.4257 41.4736C102.787 43.7963 115.215 51.1229 132.563 46.5536C135.223 46.0389 131.694 39.7563 124.43 39.8843C117.164 40.0136 110.995 36.1616 109.184 34.9016Z" fill="#21214D"/>
<path d="M111.342 119.791C108.898 123.972 99.831 124.388 97.1164 120.606C91.3057 113.42 81.551 114.759 76.7004 114.759C71.8684 114.759 62.1124 113.42 56.303 120.606C53.5884 124.388 44.5217 123.972 42.0777 119.791C40.431 116.931 36.9017 112.462 42.8204 103.556L42.8564 103.502C43.815 102.326 44.811 101.204 45.843 100.136C54.331 91.2857 65.0457 86.0004 76.7004 86.0004C88.3564 86.0004 99.0884 91.2857 107.578 100.136C108.608 101.204 109.604 102.326 110.563 103.502L110.599 103.556C116.518 112.462 112.988 116.931 111.342 119.791Z" fill="#21214D"/>
<path d="M47.6524 107.031C49.7524 110.345 56.2497 108.534 58.9644 107.031C65.895 102.797 73.587 103.286 76.863 103.286C80.139 103.286 87.5243 102.797 94.455 107.031C97.1697 108.534 103.668 110.345 105.767 107.031C106.328 106.142 106.899 105.046 107.259 103.785C107.536 102.817 108.099 100.671 107.33 99.8805C106.371 98.8938 105.386 97.9525 104.372 97.0592C103.359 96.1645 102.32 95.3192 101.256 94.5232C94.007 89.0992 85.6244 86.0005 76.7004 86.0005C67.7777 86.0005 59.4057 89.0978 52.1617 94.5232C51.099 95.3178 50.059 96.1645 49.047 97.0578C48.0337 97.9525 47.0484 98.8938 46.0884 99.8805C45.3204 100.671 45.883 102.817 46.159 103.785C46.5204 105.046 47.091 106.142 47.6524 107.031Z" fill="white"/>
<path d="M47.6524 107.031C49.7524 110.345 56.2497 108.534 58.9644 107.031C65.895 102.797 73.587 103.286 76.863 103.286C80.139 103.286 87.5243 102.797 94.455 107.031C97.1697 108.534 103.668 110.345 105.767 107.031C106.328 106.142 106.899 105.046 107.259 103.785C107.536 102.817 108.099 100.671 107.33 99.8805C106.371 98.8938 105.386 97.9525 104.372 97.0592C103.359 96.1645 102.32 95.3192 101.256 94.5232C94.007 89.0992 85.6244 86.0005 76.7004 86.0005C67.7777 86.0005 59.4057 89.0978 52.1617 94.5232C51.099 95.3178 50.059 96.1645 49.047 97.0578C48.0337 97.9525 47.0484 98.8938 46.0884 99.8805C45.3204 100.671 45.883 102.817 46.159 103.785C46.5204 105.046 47.091 106.142 47.6524 107.031Z" fill="white"/>
<path d="M47.6521 107.03C49.6616 110.209 55.7308 108.67 58.613 107.212C58.5717 106.858 58.5229 106.495 58.4815 106.116C55.5415 107.573 49.3487 109.303 47.2322 106.331C47.3722 106.578 47.5121 106.808 47.6521 107.03Z" fill="white"/>
<path d="M47.2322 106.331C49.3487 109.303 55.5415 107.573 58.4815 106.116C58.4322 105.737 58.391 105.349 58.3497 104.946C55.3109 106.412 49.1594 108.075 46.8289 105.547C46.9609 105.819 47.0922 106.075 47.2322 106.331Z" fill="white"/>
<path d="M46.8289 105.547C49.1594 108.075 55.3109 106.412 58.3497 104.946C58.3084 104.542 58.2752 104.131 58.2432 103.703C55.0974 105.177 49.0112 106.775 46.4666 104.7C46.5732 104.996 46.6971 105.275 46.8289 105.547Z" fill="white"/>
<path d="M46.4666 104.7C49.0112 106.775 55.0974 105.177 58.2432 103.703C58.2099 103.275 58.186 102.839 58.1687 102.394C54.9734 103.868 48.8048 105.654 46.1531 103.785C46.2437 104.098 46.3512 104.403 46.4666 104.7Z" fill="white"/>
<path d="M58.613 107.212C58.737 107.155 58.853 107.095 58.96 107.029C58.9347 106.667 58.9107 106.289 58.8774 105.902C58.7627 105.969 58.605 106.05 58.4815 106.116C58.5229 106.495 58.5717 106.858 58.613 107.212Z" fill="white"/>
<path d="M58.4815 106.116C58.6055 106.05 58.7612 105.968 58.8764 105.902C58.8524 105.515 58.8273 105.119 58.8113 104.708C58.6549 104.782 58.5061 104.863 58.3497 104.946C58.391 105.349 58.4322 105.737 58.4815 106.116Z" fill="white"/>
<path d="M58.3497 104.946C58.5061 104.863 58.6549 104.782 58.8113 104.708C58.7859 104.296 58.7698 103.869 58.7618 103.432C58.5806 103.523 58.4243 103.604 58.2432 103.703C58.2766 104.131 58.3084 104.542 58.3497 104.946Z" fill="white"/>
<path d="M58.2432 103.703C58.4243 103.604 58.5806 103.523 58.7618 103.432C58.7458 103.004 58.7465 102.55 58.7465 102.097C58.5489 102.196 58.358 102.295 58.1687 102.394C58.1847 102.839 58.2099 103.275 58.2432 103.703Z" fill="white"/>
<path d="M58.96 107.029C65.8859 102.805 73.5604 103.283 76.8461 103.283C76.8461 102.962 76.8461 102.624 76.8461 102.278C73.4368 102.278 65.7538 101.817 58.8774 105.902C58.9107 106.289 58.9347 106.667 58.96 107.029Z" fill="white"/>
<path d="M58.8774 105.902C65.7538 101.817 73.4368 102.278 76.8461 102.278C76.8461 101.932 76.8321 101.578 76.8321 101.208C73.1592 101.208 65.583 100.919 58.8054 104.708C58.8214 105.119 58.8465 105.515 58.8705 105.902L58.8774 105.902Z" fill="white"/>
<path d="M58.81 104.708C65.5876 100.92 73.1637 101.208 76.8367 101.208C76.8367 100.838 76.8367 100.45 76.8367 100.054C72.892 100.054 65.431 99.957 58.7605 103.432C58.7738 103.869 58.7846 104.296 58.81 104.708Z" fill="white"/>
<path d="M58.7618 103.432C65.4323 99.9569 72.893 100.054 76.8376 100.054C76.8376 99.6587 76.838 99.2562 76.8246 98.8444C72.7646 98.8444 65.3693 98.7614 58.74 102.097C58.74 102.55 58.7403 103.004 58.7563 103.432L58.7618 103.432Z" fill="white"/>
<path d="M76.8461 103.283C76.8594 103.283 76.8594 103.283 76.8621 103.283C76.8621 102.962 76.8621 102.624 76.8621 102.278C76.8487 102.278 76.8461 102.278 76.8461 102.278C76.8461 102.624 76.8461 102.962 76.8461 103.283Z" fill="white"/>
<path d="M76.8461 102.278C76.8461 102.278 76.8594 102.278 76.8621 102.278C76.8621 101.932 76.8621 101.578 76.8621 101.208C76.8487 101.208 76.846 101.208 76.8367 101.208C76.8367 101.579 76.8503 101.932 76.8503 102.278L76.8461 102.278Z" fill="white"/>
<path d="M76.8367 101.208C76.85 101.208 76.8527 101.208 76.8621 101.208C76.8621 100.837 76.8621 100.45 76.8621 100.054C76.8487 100.054 76.846 100.054 76.8367 100.054C76.8367 100.45 76.8367 100.838 76.8367 101.208Z" fill="white"/>
<path d="M76.8376 100.054C76.851 100.054 76.8537 100.054 76.863 100.054C76.863 99.6585 76.863 99.256 76.863 98.8442C76.8497 98.8442 76.8472 98.8442 76.8298 98.8442C76.8432 99.256 76.8429 99.6585 76.8429 100.054L76.8376 100.054Z" fill="white"/>
<path d="M76.8621 103.283C80.1397 103.283 87.5184 102.797 94.4526 107.03C94.5272 106.692 94.6004 106.347 94.6746 105.976C87.7735 101.842 80.2797 102.278 76.8621 102.278C76.8621 102.624 76.8621 102.962 76.8621 103.283Z" fill="white"/>
<path d="M76.8621 102.278C80.2797 102.278 87.7735 101.842 94.6746 105.976C94.7492 105.614 94.8229 105.243 94.8888 104.856C88.0453 100.919 80.5843 101.208 76.8621 101.208C76.8621 101.578 76.8621 101.932 76.8621 102.278Z" fill="white"/>
<path d="M76.8621 101.208C80.5843 101.208 88.0453 100.919 94.8888 104.856C94.9634 104.469 95.0289 104.066 95.0867 103.662C88.3008 99.9317 80.889 100.062 76.8621 100.054C76.8621 100.45 76.8621 100.837 76.8621 101.208Z" fill="white"/>
<path d="M76.8621 100.054C80.889 100.068 88.3008 99.9312 95.0867 103.662C95.144 103.25 95.2012 102.83 95.2429 102.394C88.4901 98.762 81.03 98.8525 76.863 98.8442C76.863 99.256 76.8621 99.6589 76.8621 100.054Z" fill="white"/>
<path d="M94.4526 107.03C97.1702 108.537 103.668 110.34 105.768 107.029C105.908 106.807 106.048 106.577 106.18 106.33C103.998 109.41 97.4663 107.475 94.6746 105.976C94.6004 106.347 94.5272 106.692 94.4526 107.03Z" fill="white"/>
<path d="M94.6746 105.976C97.4663 107.475 103.998 109.41 106.18 106.33C106.32 106.075 106.459 105.819 106.583 105.547C104.211 108.141 97.8452 106.346 94.8888 104.856C94.8229 105.243 94.7492 105.614 94.6746 105.976Z" fill="white"/>
<path d="M94.8894 104.857C97.8458 106.347 104.211 108.141 106.583 105.547C106.715 105.275 106.839 104.997 106.954 104.7C104.393 106.792 98.2077 105.136 95.0867 103.662C95.0293 104.066 94.9631 104.47 94.8894 104.857Z" fill="white"/>
<path d="M95.0867 103.662C98.2077 105.136 104.393 106.792 106.954 104.7C107.061 104.404 107.168 104.097 107.259 103.785C104.607 105.654 98.4381 103.876 95.2429 102.394C95.2012 102.83 95.144 103.25 95.0867 103.662Z" fill="white"/>
<path d="M46.1542 103.785C48.74 105.605 54.6779 103.958 57.9308 102.501C57.8068 101.06 57.5186 98.4323 58.0292 97.1558C54.5292 98.6052 49.1107 100.5 46.0884 99.8823C45.3225 100.673 45.883 102.813 46.1542 103.785Z" fill="white"/>
<path d="M57.9298 102.5C58.0125 102.467 58.0946 102.435 58.1687 102.394C58.078 100.936 57.8144 98.2931 58.3498 97.0083C58.2431 97.0576 58.1352 97.1058 58.0281 97.1554C57.5175 98.432 57.8061 101.059 57.9298 102.5Z" fill="white"/>
<path d="M58.1687 102.394C64.9298 98.7623 72.6216 98.8442 76.8133 98.8442C76.8 97.4772 76.8003 94.9324 76.7977 93.7466C71.9142 93.7466 64.8561 94.0013 58.3504 97.007C57.8151 98.2918 58.078 100.936 58.1687 102.394Z" fill="white"/>
<path d="M76.8133 98.8442C76.8266 98.8442 76.8272 98.8442 76.8298 98.8442C76.8432 97.4772 76.8549 94.9324 76.8549 93.7466C76.8389 93.7466 76.8137 93.7466 76.7977 93.7466C76.811 94.9324 76.8106 97.4772 76.8133 98.8442Z" fill="white"/>
<path d="M76.8298 98.8442C76.8458 98.8442 76.855 98.8442 76.863 98.8442C76.8764 97.4772 76.8754 94.9324 76.8621 93.7466C76.8621 93.7466 76.8617 93.7466 76.8484 93.7466C76.8484 94.9324 76.8323 97.4772 76.823 98.8442H76.8298Z" fill="white"/>
<path d="M76.863 98.8442C81.03 98.8576 88.4901 98.7617 95.2429 102.394C95.4405 100.985 95.8112 98.3999 95.3829 97.1646C88.8194 94.027 81.795 93.7548 76.8621 93.7466C76.8754 94.9324 76.8764 97.4772 76.863 98.8442Z" fill="white"/>
<path d="M95.2429 102.394C98.4381 103.876 104.607 105.654 107.259 103.785C107.531 102.813 108.099 100.673 107.324 99.882C104.31 100.5 98.8829 98.6058 95.3829 97.1646C95.8112 98.3999 95.4405 100.985 95.2429 102.394Z" fill="white"/>
<path d="M46.0867 99.8823C49.1089 100.5 54.5281 98.6049 58.0281 97.1554C58.5552 95.7225 59.0898 94.3227 59.6498 92.9722C56.1417 94.4134 52.7242 96.1015 49.0431 97.0568C48.0301 97.9544 47.042 98.8941 46.0867 99.8823Z" fill="white"/>
<path d="M58.0292 97.1558C59.2068 96.5958 60.4095 96.1269 61.6117 95.7316C61.9164 94.3975 62.2459 93.1048 62.5753 91.8696C61.5871 92.199 60.615 92.5772 59.6514 92.9725C59.0914 94.323 58.5562 95.7228 58.0292 97.1558Z" fill="white"/>
<path d="M61.6117 95.7316C67.1293 93.9281 72.7213 93.7466 76.7977 93.7466C76.7977 92.3631 76.7839 91.0202 76.7839 89.7273C71.9829 89.7139 67.1321 90.3127 62.5697 91.8692C62.2404 93.1044 61.9109 94.397 61.6062 95.7312L61.6117 95.7316Z" fill="white"/>
<path d="M76.796 93.7466C76.812 93.7466 76.8373 93.7466 76.8533 93.7466C76.8399 92.3631 76.8281 91.02 76.8201 89.7271C76.8067 89.7271 76.7949 89.7271 76.7869 89.7271C76.7869 91.02 76.7999 92.3631 76.7999 93.7466H76.796Z" fill="white"/>
<path d="M76.8549 93.7466C76.8682 93.7466 76.8676 93.7466 76.8676 93.7466C76.8676 92.3631 76.854 91.02 76.8513 89.7271C76.838 89.7271 76.8353 89.7271 76.8259 89.7271C76.8393 91.02 76.8518 92.3631 76.8598 93.7466H76.8549Z" fill="white"/>
<path d="M76.8621 93.7466C80.8726 93.7599 86.2757 93.927 91.6863 95.6893C91.3816 94.3552 91.0768 93.0716 90.7475 91.8364C86.284 90.3211 81.5406 89.7436 76.8464 89.7271C76.8598 91.02 76.8621 92.3631 76.8621 93.7466Z" fill="white"/>
<path d="M91.6863 95.6893C92.9216 96.0929 94.1558 96.5799 95.3829 97.1646C94.8641 95.7234 94.3217 94.3232 93.7699 92.981C92.7735 92.5692 91.7687 92.1823 90.7475 91.8364C91.0768 93.0716 91.3816 94.3552 91.6863 95.6893Z" fill="white"/>
<path d="M95.3829 97.1646C98.8829 98.6058 104.31 100.5 107.324 99.882C106.369 98.8937 105.381 97.9541 104.368 97.0565C100.687 96.1094 97.2699 94.4139 93.7699 92.981C94.3217 94.3232 94.8641 95.7234 95.3829 97.1646Z" fill="white"/>
<path d="M49.0447 97.0568C53.7471 95.838 58.0047 93.426 62.5753 91.8696C62.6819 91.5484 62.7892 91.2343 62.8962 90.9214C58.3916 92.4614 54.3479 94.9403 49.8103 96.3979C49.5551 96.6121 49.3 96.8344 49.0447 97.0568Z" fill="white"/>
<path d="M49.8103 96.3979C54.3479 94.9403 58.3916 92.4614 62.8962 90.9214C63.0029 90.6085 63.1101 90.3043 63.2172 89.9995C58.8608 91.4983 54.7515 93.7796 50.5844 95.756C50.3209 95.9619 50.0656 96.1755 49.8103 96.3979Z" fill="white"/>
<path d="M50.5844 95.756C54.7515 93.7796 58.8608 91.4983 63.2172 89.9995C63.3239 89.6866 63.4306 89.3898 63.546 89.0933C59.3294 90.5591 55.171 92.6345 51.3663 95.1297C51.1027 95.3356 50.8397 95.5419 50.5844 95.756Z" fill="white"/>
<path d="M51.3663 95.1297C55.171 92.6345 59.3294 90.5591 63.546 89.0933C63.6526 88.7886 63.7597 88.4917 63.8751 88.2036C59.7328 89.6529 55.8045 91.7942 52.1563 94.52C51.8929 94.7176 51.6298 94.9239 51.3663 95.1297Z" fill="white"/>
<path d="M62.5736 91.8695C67.1442 90.313 72.0107 89.7188 76.8201 89.7271C76.8067 89.4059 76.7952 89.0861 76.7872 88.7732C72.0355 88.7598 67.3822 89.3816 62.894 90.9216C62.7873 91.2345 62.6807 91.5483 62.5736 91.8695Z" fill="white"/>
<path d="M62.8962 90.9214C67.3845 89.3814 72.0368 88.7645 76.7885 88.7726C76.7752 88.4516 76.7726 88.1376 76.7553 87.8247C72.1353 87.8247 67.5489 88.5007 63.2172 89.9995C63.1101 90.3043 63.0029 90.6085 62.8962 90.9214Z" fill="white"/>
<path d="M63.2172 89.9995C67.5489 88.5007 72.1353 87.8247 76.7553 87.8247C76.742 87.5199 76.7402 87.2075 76.7309 86.9028C72.2345 86.9028 67.7046 87.6357 63.546 89.0933C63.4306 89.3898 63.3239 89.6866 63.2172 89.9995Z" fill="white"/>
<path d="M63.546 89.0933C67.7046 87.6357 72.2345 86.9028 76.7309 86.9028C76.7175 86.5982 76.7053 86.3012 76.6973 85.9966C72.2585 85.9966 67.968 86.7624 63.8751 88.2036C63.7597 88.4917 63.6526 88.7886 63.546 89.0933Z" fill="white"/>
<path d="M76.821 89.7274C76.821 89.4062 76.821 89.0859 76.821 88.7729C76.8077 88.7729 76.7965 88.7726 76.7885 88.7726C76.8018 89.0856 76.813 89.4062 76.821 89.7274Z" fill="white"/>
<path d="M76.7885 88.7726C76.8018 88.7726 76.813 88.7729 76.821 88.7729C76.8077 88.4519 76.808 88.1376 76.808 87.8247C76.792 87.8247 76.7747 87.8247 76.7507 87.8247C76.7667 88.1376 76.7759 88.4516 76.7839 88.7726H76.7885Z" fill="white"/>
<path d="M76.7553 87.8247C76.7806 87.8247 76.7959 87.8247 76.8119 87.8247C76.8119 87.5199 76.8119 87.2075 76.8119 86.9028C76.7786 86.9028 76.7626 86.9028 76.7292 86.9028C76.7426 87.2075 76.746 87.5199 76.7553 87.8247Z" fill="white"/>
<path d="M76.7309 86.9028C76.7642 86.9028 76.7786 86.9028 76.8119 86.9028C76.8119 86.5982 76.8126 86.3012 76.8126 85.9966C76.7712 85.9966 76.7373 85.9966 76.6973 85.9966C76.7107 86.3012 76.7229 86.5982 76.7309 86.9028Z" fill="white"/>
<path d="M76.821 89.7274C81.5316 89.7434 86.2757 90.3211 90.7475 91.8364C90.6488 91.5152 90.5407 91.2018 90.4337 90.8888C86.0278 89.3983 81.474 88.7812 76.821 88.7729C76.821 89.0859 76.821 89.4062 76.821 89.7274Z" fill="white"/>
<path d="M76.821 88.7729C81.474 88.7863 86.0278 89.3983 90.4337 90.8888C90.327 90.5842 90.2204 90.2714 90.1134 89.9666C85.8558 88.509 81.3508 87.8411 76.8132 87.8247C76.8132 88.1376 76.8136 88.4516 76.8269 88.7726L76.821 88.7729Z" fill="white"/>
<path d="M76.8132 87.8247C81.3508 87.8411 85.8558 88.509 90.1134 89.9666C90.0067 89.662 89.8988 89.3651 89.7917 89.0604C85.6824 87.6357 81.2356 86.9194 76.8132 86.9028C76.8132 87.2075 76.8132 87.5199 76.8132 87.8247Z" fill="white"/>
<path d="M76.8132 86.9028C81.2356 86.9194 85.6824 87.6357 89.7917 89.0604C89.6771 88.764 89.5698 88.4671 89.4545 88.1789C85.4193 86.7707 81.1772 86.0131 76.8126 85.9966C76.8126 86.3012 76.8132 86.5982 76.8132 86.9028Z" fill="white"/>
<path d="M90.7475 91.8364C95.3509 93.3928 99.6413 95.8377 104.368 97.0565C104.113 96.8341 103.858 96.6124 103.602 96.3983C99.04 94.9407 94.9713 92.437 90.4337 90.8888C90.5407 91.2018 90.6488 91.5152 90.7475 91.8364Z" fill="white"/>
<path d="M90.4337 90.8888C94.9713 92.437 99.04 94.9407 103.602 96.3983C103.347 96.1841 103.091 95.9622 102.828 95.7563C98.6279 93.7717 94.5027 91.4737 90.1134 89.9666C90.2204 90.2714 90.327 90.5842 90.4337 90.8888Z" fill="white"/>
<path d="M90.1134 89.9666C94.5027 91.4737 98.6279 93.7717 102.828 95.7563C102.573 95.5422 102.31 95.3359 102.046 95.13C98.217 92.6266 94.0247 90.5345 89.7917 89.0604C89.8988 89.3651 90.0067 89.662 90.1134 89.9666Z" fill="white"/>
<path d="M89.7917 89.0604C94.0247 90.5345 98.217 92.6266 102.046 95.13C101.783 94.9242 101.518 94.7179 101.255 94.5203C97.59 91.7779 93.6297 89.6283 89.4545 88.1789C89.5698 88.4671 89.6771 88.764 89.7917 89.0604Z" fill="white"/>
</svg>
