<svg width="154" height="154" viewBox="0 0 154 154" fill="none" xmlns="http://www.w3.org/2000/svg">
<circle cx="76.6667" cy="76.6665" r="76.665" fill="#FFC97C"/>
<path d="M61.3447 59.3874C61.3447 67.1341 55.8754 73.4141 49.1287 73.4141C42.382 73.4141 36.9114 67.1341 36.9114 59.3874C36.9114 51.6408 42.382 45.3607 49.1287 45.3607C55.8754 45.3607 61.3447 51.6408 61.3447 59.3874Z" fill="#21214D"/>
<path d="M116.425 59.3874C116.425 67.1341 110.955 73.4141 104.209 73.4141C97.4608 73.4141 91.9915 67.1341 91.9915 59.3874C91.9915 51.6408 97.4608 45.3607 104.209 45.3607C110.955 45.3607 116.425 51.6408 116.425 59.3874Z" fill="#21214D"/>
<path d="M51.21 55.2247C51.21 57.6741 49.2247 59.6594 46.7767 59.6594C44.3273 59.6594 42.342 57.6741 42.342 55.2247C42.342 52.7754 44.3273 50.7901 46.7767 50.7901C49.2247 50.7901 51.21 52.7754 51.21 55.2247Z" fill="white"/>
<path d="M106.29 55.2247C106.29 57.6741 104.304 59.6594 101.855 59.6594C99.4055 59.6594 97.4202 57.6741 97.4202 55.2247C97.4202 52.7754 99.4055 50.7901 101.855 50.7901C104.304 50.7901 106.29 52.7754 106.29 55.2247Z" fill="white"/>
<path d="M76.6687 130.384C91.0067 130.384 100.949 125.942 108.146 120.382C114.459 115.505 118.67 109.764 121.902 105.324L123.23 103.508H123.231C126.086 99.6545 126.248 96.0572 125.394 93.2979L125.308 93.0342L125.305 93.0244C125.211 92.7271 125.098 92.4373 124.971 92.1533L124.841 91.8711L124.839 91.8662C124.192 90.4821 123.304 89.3802 122.469 88.666C122.05 88.3086 121.657 88.0583 121.326 87.915C121 87.7739 120.791 87.7634 120.687 87.7852C113.005 91.3223 103.971 92.8377 95.8923 93.4727C87.7919 94.1093 80.6009 93.8643 76.6687 93.8643C72.7358 93.8643 65.5439 94.1094 57.4431 93.4727C49.3635 92.8376 40.3291 91.3226 32.6472 87.7852C32.5434 87.7638 32.3363 87.7745 32.0115 87.915C31.6805 88.0583 31.287 88.3085 30.8689 88.666C30.0858 89.3356 29.2566 90.3461 28.6228 91.6104L28.4988 91.8662L28.4968 91.8711L28.366 92.1533C28.2816 92.3428 28.203 92.5351 28.1316 92.7305L28.03 93.0254L28.0271 93.0342L27.9421 93.2979C27.1159 95.9682 27.2418 99.423 29.8376 103.136L30.1052 103.508C33.5057 108.106 37.9761 114.809 45.1902 120.382C52.388 125.942 62.3306 130.384 76.6687 130.384Z" fill="#21214D" stroke="#21214D"/>
<path d="M40.511 103.334C50.1346 109.496 62.7969 113.233 76.6659 113.233C86.2451 113.233 95.2489 111.45 103.07 108.317C107.907 106.38 112.292 103.927 116.082 101.061C117.307 100.134 118.468 99.165 119.563 98.1556C120.658 97.1476 121.686 96.0983 122.643 95.013C122.84 94.7899 123.033 94.5651 123.224 94.3389C123.264 94.2918 123.304 94.2446 123.345 94.197L123.402 94.1254C123.593 93.8957 123.781 93.6643 123.965 93.4315L124.022 93.3613L124.053 93.321C124.483 92.7735 124.896 92.2177 125.291 91.6543C124.523 90.0134 123.43 88.7427 122.438 88.0022C122.137 87.7757 121.845 87.5983 121.576 87.4746C121.576 87.475 121.575 87.4754 121.575 87.4758C121.473 87.4313 121.376 87.3943 121.283 87.3645C121.205 87.3391 121.13 87.319 121.057 87.3042C120.992 87.2905 120.928 87.2806 120.866 87.2744L120.865 87.2772L120.866 87.2725C120.74 87.2725 120.634 87.273 120.528 87.305L120.527 87.306C106.772 93.6667 88.5152 93.4769 79.2948 93.3811C78.31 93.3708 77.4284 93.3617 76.6663 93.3617C75.9029 93.3617 75.0195 93.3708 74.0337 93.3811C69.8585 93.4244 63.8358 93.487 57.2173 92.9532C49.2113 92.3063 40.3338 90.7865 32.8018 87.305C32.7175 87.2815 32.6242 87.2715 32.5234 87.2746L32.4655 87.2744L32.4644 87.2725C32.2527 87.2938 32.0102 87.3564 31.7561 87.4736L31.7592 87.4799L31.7583 87.4803L31.7555 87.4746C30.5909 88.0039 29.045 89.5177 28.0393 91.6562C28.2404 91.9421 28.4513 92.2278 28.663 92.5137L28.6641 92.5115L28.6633 92.5146C28.8751 92.8005 29.0869 93.0758 29.3092 93.3617C29.3752 93.4434 29.4413 93.5259 29.5077 93.609C29.6648 93.8055 29.8236 94.0042 29.9872 94.1976C30.1018 94.333 30.2166 94.4653 30.331 94.5981L30.3317 94.5989C30.4496 94.7358 30.5675 94.8726 30.6855 95.0122C31.6489 96.1026 32.6773 97.1516 33.7678 98.1575C34.8124 99.1116 35.905 100.037 37.063 100.916C37.1264 100.964 37.19 101.013 37.2538 101.061C37.5978 101.321 37.9467 101.578 38.3003 101.831C39.0177 102.346 39.7524 102.845 40.511 103.334Z" fill="white"/>
</svg>
